G04 EAGLE Gerber RS-274X export*
G75*
%MOMM*%
%FSLAX34Y34*%
%LPD*%
%INTop Copper*%
%IPNEG*%
%AMOC8*
5,1,8,0,0,1.08239X$1,22.5*%
G01*
%ADD10C,0.200000*%
%ADD11R,3.000000X0.500000*%
%ADD12R,2.000000X0.500000*%
%ADD13C,1.524000*%
%ADD14R,2.100000X0.635000*%
%ADD15R,1.700000X0.635000*%
%ADD16R,1.500000X1.300000*%
%ADD17R,1.300000X1.500000*%
%ADD18C,1.300000*%
%ADD19C,0.406400*%
%ADD20C,0.203200*%
%ADD21C,1.206400*%


D10*
X0Y0D02*
X240000Y0D01*
X240000Y130000D01*
X160000Y130000D01*
X160000Y222000D01*
X130000Y252000D01*
X0Y252000D01*
X0Y0D01*
D11*
X88000Y133000D03*
X88000Y143000D03*
X88000Y153000D03*
X88000Y163000D03*
X88000Y173000D03*
X88000Y183000D03*
D12*
X58000Y123000D03*
X58000Y193000D03*
D13*
X205380Y81300D02*
X220620Y81300D01*
X220620Y106700D02*
X205380Y106700D01*
X205380Y48700D02*
X220620Y48700D01*
X220620Y23300D02*
X205380Y23300D01*
D14*
X64000Y85000D03*
D15*
X64000Y72300D03*
X64000Y59600D03*
X64000Y46900D03*
X118000Y85000D03*
X118000Y72300D03*
X118000Y59600D03*
X118000Y46900D03*
D13*
X137800Y29620D02*
X137800Y14380D01*
X112400Y14380D02*
X112400Y29620D01*
X87000Y29620D02*
X87000Y14380D01*
X61600Y14380D02*
X61600Y29620D01*
X36200Y29620D02*
X36200Y14380D01*
D16*
X187000Y42500D03*
X187000Y23500D03*
D17*
X68500Y107000D03*
X87500Y107000D03*
D18*
X103000Y118000D03*
D19*
X88000Y183000D02*
X52000Y183000D01*
X27000Y158000D01*
D18*
X27000Y158000D03*
D19*
X187200Y23300D02*
X213000Y23300D01*
X187200Y23300D02*
X187000Y23500D01*
X36200Y22000D02*
X36200Y28200D01*
X55000Y47000D01*
X63900Y47000D01*
X64000Y46900D01*
X103000Y118000D02*
X88000Y133000D01*
X52000Y133000D01*
X27000Y158000D01*
X213000Y81300D02*
X213000Y48700D01*
X207800Y42500D02*
X187000Y42500D01*
X207800Y42500D02*
X213000Y48700D01*
X117000Y150000D02*
X114000Y153000D01*
X88000Y153000D01*
D18*
X117000Y150000D03*
X104000Y102000D03*
D19*
X104000Y85000D01*
X118000Y85000D01*
X99000Y107000D02*
X87500Y107000D01*
X99000Y107000D02*
X104000Y102000D01*
X104000Y143000D02*
X88000Y143000D01*
X118000Y72300D02*
X122000Y72300D01*
X128300Y72300D01*
X133000Y77000D01*
X133000Y114000D01*
X104000Y143000D01*
X87000Y53000D02*
X87000Y22000D01*
X106300Y72300D02*
X118000Y72300D01*
X106300Y72300D02*
X87000Y53000D01*
X88000Y163000D02*
X128000Y163000D01*
X124600Y59600D02*
X121000Y59600D01*
X142000Y116000D02*
X137000Y121000D01*
X142000Y116000D02*
X142000Y70000D01*
X131600Y59600D02*
X124600Y59600D01*
X121000Y59600D02*
X118000Y59600D01*
X137000Y154000D02*
X128000Y163000D01*
X137000Y154000D02*
X137000Y121000D01*
X142000Y70000D02*
X131600Y59600D01*
X107000Y27400D02*
X112400Y22000D01*
X107000Y35000D02*
X98000Y44000D01*
X98000Y50000D01*
X108000Y60000D01*
X120600Y60000D01*
X121000Y59600D01*
X107000Y35000D02*
X107000Y27400D01*
X118000Y46900D02*
X137800Y46900D01*
X141900Y46900D01*
X150000Y55000D01*
X132000Y173000D02*
X88000Y173000D01*
X137800Y46900D02*
X137800Y22000D01*
X150000Y86000D02*
X150000Y89000D01*
X150000Y86000D02*
X150000Y55000D01*
X145268Y123898D02*
X145268Y159732D01*
X145268Y123898D02*
X150000Y119166D01*
X150000Y89000D01*
X145268Y159732D02*
X132000Y173000D01*
D18*
X15200Y22500D03*
D20*
X53600Y59600D02*
X64000Y59600D01*
X15200Y22500D02*
X15000Y22700D01*
X15200Y22500D02*
X15200Y30200D01*
X21000Y36000D01*
X49000Y51000D01*
X50000Y52000D01*
X50000Y56000D02*
X53600Y59600D01*
X50000Y56000D02*
X50000Y52000D01*
D19*
X55000Y94000D02*
X55000Y107000D01*
X55000Y94000D02*
X64000Y85000D01*
D18*
X55000Y107000D03*
D19*
X68500Y107000D01*
D21*
X15000Y78000D03*
M02*
